<?xml version="1.0" encoding="UTF-8"?>
<svg id="Layer_1" data-name="Layer 1" xmlns="http://www.w3.org/2000/svg" viewBox="0 0 1080 1080">
  <defs>
    <style>
      .cls-1 {
        fill: #ff0402;
      }

      .cls-2 {
        fill: #9f110e;
      }
    </style>
  </defs>
  <g id="V3">
    <polygon class="cls-2" points="546.56 540 726.44 539.44 826.53 261.75 638.13 477.81 546.56 540"/>
    <polygon class="cls-1" points="826.53 261.75 682.28 508.63 546.56 540 638.13 477.81 826.53 261.75"/>
  </g>
  <g id="V2">
    <polygon class="cls-2" points="536.84 545.47 446.86 701.23 636.54 927.4 544.54 655.9 536.84 545.47"/>
    <polygon class="cls-1" points="636.54 927.4 495.7 678.57 536.84 545.47 544.54 655.9 636.54 927.4"/>
  </g>
  <g id="V1">
    <polygon class="cls-2" points="536.87 534.69 446.97 378.88 156.27 430.05 437.39 486.14 536.87 534.69"/>
    <polygon class="cls-1" points="156.27 430.05 442.18 432.51 536.87 534.69 437.39 486.14 156.27 430.05"/>
  </g>
</svg>